<svg xmlns="http://www.w3.org/2000/svg" xmlns:xlink="http://www.w3.org/1999/xlink" width="100.0" height="100.0" viewBox="106.697396 -6.192804 0.0811080000000004 0.0759079999999992" preserveAspectRatio="xMinYMin meet"><g transform="matrix(1,0,0,-1,0,-12.3097)"><g><path fill-rule="evenodd" fill="#66cc99" stroke="#555555" stroke-width="0.0016221600000000081" opacity="0.6" d="M 106.7085,-6.1811 L 106.7004,-6.1771 L 106.7087,-6.1729 L 106.7089,-6.1745 L 106.7106,-6.1742 L 106.7137,-6.168 L 106.7165,-6.1659 L 106.7157,-6.1552 L 106.7189,-6.1535 L 106.7178,-6.1455 L 106.7206,-6.1403 L 106.718,-6.1311 L 106.7205,-6.1268 L 106.7243,-6.1263 L 106.7213,-6.1221 L 106.7232,-6.1208 L 106.7248,-6.1199 L 106.727,-6.1236 L 106.7292,-6.1241 L 106.7316,-6.1216 L 106.7509,-6.1344 L 106.7682,-6.1407 L 106.7755,-6.1417 L 106.7751,-6.1452 L 106.7666,-6.1605 L 106.7477,-6.158 L 106.7487,-6.1657 L 106.7439,-6.1659 L 106.7416,-6.1681 L 106.7394,-6.168 L 106.7388,-6.1698 L 106.7379,-6.1688 L 106.7382,-6.1706 L 106.7357,-6.1699 L 106.7334,-6.1716 L 106.7309,-6.176 L 106.7292,-6.1752 L 106.7257,-6.1787 L 106.723,-6.1844 L 106.7241,-6.1858 L 106.718,-6.1878 L 106.7165,-6.1898 L 106.7171,-6.1867 L 106.7085,-6.1811 z" /></g></g></svg>